<?xml version="1.0" encoding="UTF-8"?>
<!DOCTYPE svg PUBLIC "-//W3C//DTD SVG 1.1//EN" "http://www.w3.org/Graphics/SVG/1.1/DTD/svg11.dtd">
<!-- Creator: CorelDRAW -->
<svg xmlns="http://www.w3.org/2000/svg" xml:space="preserve" width="2.2902in" height="2.1888in" style="shape-rendering:geometricPrecision; text-rendering:geometricPrecision; image-rendering:optimizeQuality; fill-rule:evenodd; clip-rule:evenodd"
viewBox="0 0 3.37267 3.22335"
 xmlns:xlink="http://www.w3.org/1999/xlink">
 <defs>
  <style type="text/css">
   <![CDATA[
    .fil0 {fill:black}
   ]]>
  </style>
 </defs>
 <g id="Layer_x0020_1">
  <metadata id="CorelCorpID_0Corel-Layer"/>
  <path class="fil0" d="M1.79344 0.0129756c0.00382658,-0.003241 0.0114044,-0.00972299 0.015231,-0.0129756 0.00128132,0.0689016 -0.0106159,0.137142 -0.0130742,0.205963 0.0318592,-0.00344972 0.0591786,-0.0215332 0.090145,-0.0282181 0.103822,-0.0195735 0.227003,-0.00973459 0.299557,0.0766824 0.0196547,-0.0495542 0.0246641,-0.103515 0.0419706,-0.15395 0.0147497,-0.00207563 0.0175965,0.016808 0.020936,0.0274296 0.0191793,0.0896405 0.0175037,0.182163 0.0200606,0.273398 -0.00029569,0.101538 -0.00167558,0.204183 -0.0230986,0.30397 -0.0182864,0.0795233 -0.0265484,0.162004 -0.0590917,0.237706 -0.0131669,0.0362655 -0.03568,0.0692089 -0.0439419,0.107254 -0.00579785,0.063011 -0.0131727,0.126132 -0.0270296,0.187868 0.0566218,0.0717542 0.125141,0.132811 0.184319,0.202322 0.0269426,0.00451652 0.0461161,0.0246756 0.0579089,0.0481685 0.00304967,-0.000498615 0.00923597,-0.00147265 0.0122856,-0.00206983 0.0119958,-0.00805901 0.0247742,-0.0148425 0.037657,-0.0214231 0.0359815,0.0365612 0.0777608,0.0663506 0.116983,0.0992882 -0.0322418,0.076978 -0.12328,0.0982098 -0.197399,0.110693 0.0601643,0.011903 0.111777,-0.037257 0.171645,-0.0295922 0.0196605,0.00118276 0.0385383,0.00688784 0.0579031,0.010326 -0.0410952,-0.016692 -0.0515139,-0.0154803 -0.0759924,-0.01824 0.00366424,-0.00524126 0.0100303,-0.0121233 0.0141583,-0.0167558 0.0594801,-0.0611499 0.100274,-0.148941 0.0811989,-0.235451 -0.0106159,-0.0830832 -0.0518038,-0.156606 -0.0834658,-0.232598 0.0331347,0.0112014 0.0637068,0.0284153 0.0943832,0.0451247 0.21648,0.113447 0.427736,0.236628 0.635363,0.365409 0.0510211,0.0340102 0.106373,0.0629183 0.150611,0.106176 -0.0722586,0.0307692 -0.148147,0.0524937 -0.218046,0.0886781 -0.191115,0.0889622 -0.372987,0.228169 -0.457334,0.427046 -0.052888,0.124161 -0.0450261,0.261698 -0.0425678,0.393529 -0.052198,-0.0190749 -0.101648,-0.0511138 -0.159163,-0.0495484 -0.0563319,0.000788508 -0.114722,-0.00668492 -0.168596,0.013567 -0.128886,0.0444347 -0.233189,0.14058 -0.315275,0.246855 -0.110994,0.12986 -0.189932,0.283034 -0.26829,0.433743 -0.0121871,-0.0285254 -0.0215274,-0.0581118 -0.0285022,-0.0882896 -0.0610514,-0.243515 -0.142256,-0.484561 -0.270939,-0.701227 -0.10519,-0.178336 -0.249609,-0.339858 -0.435807,-0.435314 -0.18196,-0.0945861 -0.395193,-0.108037 -0.594859,-0.076091 0.00609354,-0.0182864 0.0139554,-0.03608 0.0245713,-0.052198 0.0555434,-0.0819004 0.0992998,-0.173228 0.119152,-0.270551 0.0153411,-0.109724 0.0183908,-0.221391 0.0083605,-0.331596 -0.0193706,-0.119059 -0.0547549,-0.235346 -0.100372,-0.346827 -0.103126,-0.278419 -0.247545,-0.540702 -0.421353,-0.781063 -0.0166108,-0.0208375 -0.0315577,-0.0430606 -0.0436462,-0.0669478 0.020449,0.00471365 0.0406023,0.0109116 0.0601643,0.0185763 0.349778,0.132411 0.69976,0.265043 1.04669,0.404736 0.000487019,0.00314243 0.00136829,0.00954326 0.00186691,0.0126857 -0.0674406,0.0435418 -0.139896,0.0918205 -0.17175,0.169088 -0.0384339,0.0800161 -0.0186749,0.173419 0.0109174,0.253053 -0.0125871,0.00599498 -0.0250699,0.0120885 -0.0364801,0.020049 0.0271397,-0.00736907 0.0510269,-0.0228029 0.0740327,-0.0385383 0.0360742,0.0192605 0.0587844,0.057219 0.0956529,0.0748154 0.0432578,0.00225536 0.0935889,-0.0154339 0.129373,0.0184835 0.0679334,-0.0213477 0.135565,-0.0525981 0.207824,-0.0528938 0.0385383,-0.0892695 0.0680262,-0.182261 0.109023,-0.270545 0.00983895,-0.0233074 0.0248728,-0.046893 0.0212375,-0.073337 -0.00442376,-0.0285138 -0.00590221,-0.0573117 -0.00452232,-0.086214 0.0238871,-0.0297024 0.0541693,-0.0561348 0.0671449,-0.0930033 0.0486613,-0.143723 0.0981112,-0.289811 0.182267,-0.417225zm-0.00786768 0.4593c0.0119958,0.0204548 0.021626,0.0439477 0.0403994,0.059283 0.0281254,0.0134742 0.0605585,0.0114044 0.0907421,0.0160253 -0.0371584,-0.0341203 -0.0799234,-0.0674406 -0.131142,-0.0753083zm0.275659 0.111481c0.032439,0.00716614 0.065765,0.0105231 0.0988939,0.00639503 0.0119958,-0.0119958 0.0251743,-0.0228087 0.0389326,-0.0328332 -0.0475829,-0.00286414 -0.0934961,0.0111029 -0.137826,0.0264382zm-0.335922 0.0365612c0.00501514,0.0186865 0.0072705,0.0382542 0.00284674,0.0574219 -0.0160253,0.0906378 -0.0186807,0.183055 -0.0159267,0.274876 0.0735399,0.0501224 0.137635,0.129965 0.233189,0.133698 0.0568247,0.00796045 0.113452,-0.0189706 0.155429,-0.0549578 0.0378484,-0.0901566 0.0283109,-0.191109 0.0519023,-0.284796 0.00167558,-0.0160311 0.015631,-0.0245771 0.0271339,-0.0335232 -0.0351929,0.00343233 -0.0706816,0.000591381 -0.10588,0.00373381 -0.0305721,0.00934034 -0.0584887,0.0253656 -0.0883766,0.0364685 -0.0675276,-0.0729427 -0.163981,-0.114815 -0.260318,-0.132921zm-1.02674 0.421654c0.0941803,-0.000104361 0.189735,-0.00245249 0.282541,0.0149469 0.114131,0.0433505 0.221489,0.1106 0.30259,0.202809 0.0258584,0.0270238 0.0235972,0.0670521 0.0398196,0.0988011 0.0173008,0.00747343 0.0362713,0.0102216 0.0548535,0.0130742 -0.0131727,-0.00659215 -0.0273311,-0.010813 -0.0414894,-0.0145468 -0.00982735,-0.0281254 -0.0351871,-0.0589873 -0.0162166,-0.0886781 -0.0774651,-0.0704903 -0.159557,-0.137629 -0.255407,-0.181577 -0.0827759,-0.0644025 -0.193567,-0.0581002 -0.292467,-0.0544592 -0.000689944,-0.00423243 -0.0021626,-0.0126857 -0.00284674,-0.0169065 -0.0235045,0.00972879 -0.0472931,0.018385 -0.0713773,0.0265368zm0.862755 0.60184c-0.0953572,0.0214346 -0.18374,0.0688205 -0.255598,0.134788 0.0671449,0.0121813 0.136052,0.0262527 0.197399,0.0581988 0.0758996,0.0438375 0.116003,0.12957 0.124758,0.214213 0.0747111,0.00844747 0.151985,0.0244785 0.214805,0.0681305 0.0303691,0.0306648 0.0567204,0.065278 0.076578,0.103718 0.0175443,0.0236378 0.0362192,0.102506 0.0422663,0.133206 0.0311692,-0.0585989 0.0767867,-0.110008 0.133316,-0.145103 0.0507254,-0.0251685 0.110594,-0.0310707 0.162896,-0.00658636 0.0109116,-0.0606629 0.0646808,-0.122688 0.13055,-0.119644 0.0302822,-0.000597178 0.06046,-0.00166978 0.0907363,-0.00402951 -0.0234871,-0.116989 -0.0950615,-0.222377 -0.190714,-0.293058 -0.00904464,0.0579901 -0.033326,0.119644 -0.0855299,0.151591 -0.034503,0.0180835 -0.0737255,0.0243858 -0.111777,0.0303807 -0.00658636,-0.0584017 -0.0139612,-0.116792 -0.0155324,-0.175576l-0.000736327 -0.0206635c-0.00894608,0.0099839 -0.013422,0.0280326 -0.0181357,0.0423823 -0.0227102,-0.00639503 -0.0460117,-0.0120885 -0.0671507,-0.0228029 -0.0169993,-0.00827353 -0.0139612,-0.0306764 -0.020049,-0.0458146 -0.0233016,0.0573059 -0.0389326,0.118763 -0.0680378,0.173019 -0.102825,-0.0668492 -0.163975,-0.182453 -0.199562,-0.296688 -0.0477743,-0.00669652 -0.0943774,0.0107086 -0.140482,0.0203389zm0.254526 -0.820187c0.0270296,-0.0173935 0.0564247,-0.0344972 0.089455,-0.0354828 0.0436462,0.00481221 0.0870025,0.0121929 0.130852,0.0157296 0.0125813,0.0231972 0.0432578,0.0504297 0.0232958,0.0775636 -0.00855183,-0.0125813 -0.0165123,-0.0255569 -0.0241828,-0.0386311 -0.0704845,-0.0414836 -0.151295,-0.0145526 -0.225032,0 0.00137989,-0.00481801 0.00423243,-0.0143555 0.00561232,-0.0191793z"/>
 </g>
</svg>
